<?xml version="1.0" encoding="utf-8" standalone="no"?>
<!DOCTYPE svg PUBLIC "-//W3C//DTD SVG 1.1//EN"
  "http://www.w3.org/Graphics/SVG/1.1/DTD/svg11.dtd">
<svg height="561.5pt" version="1.1" viewBox="0 0 575.9 561.5" width="575.9pt" xmlns="http://www.w3.org/2000/svg" xmlns:xlink="http://www.w3.org/1999/xlink">
 <metadata>
  <rdf:RDF xmlns:cc="http://creativecommons.org/ns#" xmlns:dc="http://purl.org/dc/elements/1.1/" xmlns:rdf="http://www.w3.org/1999/02/22-rdf-syntax-ns#">
   <cc:Work>
    <dc:type rdf:resource="http://purl.org/dc/dcmitype/StillImage"/>
    <dc:date>2022-01-20T18:52:15.408569</dc:date>
    <dc:format>image/svg+xml</dc:format>
    <dc:creator>
     <cc:Agent>
      <dc:title>Matplotlib v3.4.2, https://matplotlib.org/</dc:title>
     </cc:Agent>
    </dc:creator>
   </cc:Work>
  </rdf:RDF>
 </metadata>
 <defs>
  <style type="text/css">*{stroke-linecap:butt;stroke-linejoin:round;}</style>
 </defs>
 <g id="figure_1">
  <g id="patch_1">
   <path d="M 0 561.5 
L 575.9 561.5 
L 575.9 0 
L 0 0 
z
" style="fill:#ffffff;"/>
  </g>
  <g id="axes_1">
   <g id="patch_2">
    <path d="M 10.7 550.8 
L 568.7 550.8 
L 568.7 7.2 
L 10.7 7.2 
z
" style="fill:#ffffff;"/>
   </g>
   <g id="patch_3">
    <path clip-path="url(#pd0a45cbe4c)" d="M 178.1 322.488 
C 189.938666 322.488 201.294045 317.90583 209.665247 309.75066 
C 218.036448 301.595489 222.74 290.533152 222.74 279 
C 222.74 267.466848 218.036448 256.404511 209.665247 248.24934 
C 201.294045 240.09417 189.938666 235.512 178.1 235.512 
C 166.261334 235.512 154.905955 240.09417 146.534753 248.24934 
C 138.163552 256.404511 133.46 267.466848 133.46 279 
C 133.46 290.533152 138.163552 301.595489 146.534753 309.75066 
C 154.905955 317.90583 166.261334 322.488 178.1 322.488 
z
" style="fill:none;stroke:#000000;stroke-linejoin:miter;stroke-width:3;"/>
   </g>
   <g id="patch_4">
    <path clip-path="url(#pd0a45cbe4c)" d="M 245.06 322.488 
L 289.7 235.512 
L 334.34 322.488 
z
" style="fill:none;stroke:#000000;stroke-linejoin:miter;stroke-width:3;"/>
   </g>
   <g id="patch_5">
    <path clip-path="url(#pd0a45cbe4c)" d="M 356.66 322.488 
L 356.66 235.512 
L 445.94 235.512 
L 445.94 322.488 
z
" style="fill:none;stroke:#000000;stroke-linejoin:miter;stroke-width:3;"/>
   </g>
   <g id="patch_6">
    <path d="M 10.7 550.8 
L 10.7 7.2 
" style="fill:none;stroke:#000000;stroke-linecap:square;stroke-linejoin:miter;stroke-width:3;"/>
   </g>
   <g id="patch_7">
    <path d="M 568.7 550.8 
L 568.7 7.2 
" style="fill:none;stroke:#000000;stroke-linecap:square;stroke-linejoin:miter;stroke-width:3;"/>
   </g>
   <g id="patch_8">
    <path d="M 10.7 550.8 
L 568.7 550.8 
" style="fill:none;stroke:#000000;stroke-linecap:square;stroke-linejoin:miter;stroke-width:3;"/>
   </g>
   <g id="patch_9">
    <path d="M 10.7 7.2 
L 568.7 7.2 
" style="fill:none;stroke:#000000;stroke-linecap:square;stroke-linejoin:miter;stroke-width:3;"/>
   </g>
  </g>
 </g>
 <defs>
  <clipPath id="pd0a45cbe4c">
   <rect height="543.6" width="558" x="10.7" y="7.2"/>
  </clipPath>
 </defs>
</svg>
